<svg version="1.1" id="Layer_1" xmlns="http://www.w3.org/2000/svg" xmlns:xlink="http://www.w3.org/1999/xlink" x="0px" y="0px"
	 width="100%" viewBox="0 0 1024 1024" enable-background="new 0 0 1024 1024" xml:space="preserve">
<path fill="#000000" opacity="1.000000" stroke="none" 
	d="
M446.468658,1025.000000 
	C435.987396,998.998352 432.472351,971.545471 427.519623,944.361694 
	C421.617523,911.967102 422.450165,879.348022 422.962921,846.758911 
	C423.295013,825.650085 423.257629,804.467346 425.796295,783.439514 
	C426.252411,779.661316 423.936279,776.011780 424.793427,772.597351 
	C427.797821,760.629639 421.926056,750.346985 419.959442,739.254395 
	C416.802521,721.447693 407.034149,707.846130 397.348083,693.835815 
	C387.119934,679.041382 376.446289,664.595032 365.001190,650.667847 
	C358.500275,642.757019 351.453400,640.683350 342.225006,643.359375 
	C317.276886,650.593811 291.486389,654.348511 266.582062,661.805969 
	C247.595612,667.491394 228.872391,673.821716 210.415421,681.087891 
	C179.426407,693.287476 149.090805,706.925049 118.917007,720.971741 
	C113.361794,723.557861 107.515701,725.581482 101.680992,727.488831 
	C94.570312,729.813171 89.008995,734.752991 82.616013,738.275391 
	C79.797501,739.828247 77.388702,740.340332 74.813774,738.299438 
	C72.207878,736.233948 72.916229,733.656982 73.751999,731.003967 
	C74.566689,728.417908 75.840141,726.124695 77.438522,723.960388 
	C104.992935,686.650391 136.446808,653.223938 172.967972,624.372986 
	C197.613342,604.903564 224.660873,589.035706 249.766693,570.326782 
	C267.446838,557.151489 286.488800,546.131042 305.985474,535.942444 
	C312.066650,532.764526 314.147827,527.520020 316.049835,521.812012 
	C317.204559,518.346741 314.733215,518.286560 312.435486,518.368958 
	C306.187164,518.593018 300.250214,518.232300 294.973053,513.996521 
	C283.313904,504.638123 280.007599,492.259766 282.076141,478.235077 
	C283.717346,467.107758 288.547607,457.244476 296.874084,449.416656 
	C300.190704,446.298676 304.122955,444.223999 308.784027,443.660583 
	C310.398560,443.465393 312.035919,442.903473 313.505493,442.186493 
	C316.070526,440.935089 316.022034,439.279816 313.701996,437.749054 
	C312.597595,437.020325 311.395020,436.389069 310.158783,435.919250 
	C295.171478,430.223480 280.928345,422.919281 266.764648,415.503418 
	C253.154922,408.377625 238.384201,403.957275 224.764099,396.878448 
	C219.445236,394.114105 215.774399,390.288361 213.708939,384.631378 
	C212.351242,380.912811 212.868195,377.988983 215.366730,374.949219 
	C217.906281,371.859589 220.494308,370.976379 224.474747,372.151550 
	C231.542221,374.238190 238.993835,374.030853 246.278656,374.536926 
	C266.235443,375.923309 285.922760,379.192932 305.653534,382.235168 
	C318.005554,384.139709 330.404144,385.627380 342.956512,384.836273 
	C347.464264,384.552185 351.927765,385.027893 356.406219,385.598114 
	C363.922180,386.554993 364.820618,385.392090 362.905548,378.241180 
	C360.105591,367.785889 357.120270,357.370056 354.690918,346.827515 
	C344.970001,304.642303 334.729919,262.550629 330.190002,219.364105 
	C329.919342,216.789169 330.252655,214.369339 331.021057,211.988937 
	C331.711792,209.848953 331.859467,207.732910 331.245972,205.599152 
	C329.221283,198.557327 332.118378,193.266647 337.198120,188.766846 
	C343.013489,183.615402 349.768799,179.952698 356.926849,177.158691 
	C387.639740,165.170517 419.619873,162.656708 452.219574,164.442184 
	C479.273041,165.923874 505.163635,172.340378 530.349060,181.965485 
	C538.171082,184.954834 545.524170,188.840561 551.700134,194.661346 
	C552.421570,195.341309 553.221802,196.246460 554.100830,196.403961 
	C566.763428,198.672882 572.983765,209.881897 582.467651,216.526215 
	C588.014343,220.412170 592.881042,224.475906 596.607666,230.217453 
	C598.822449,233.629608 601.388916,236.590546 601.026062,240.953964 
	C600.986511,241.429230 601.048401,242.071991 601.335999,242.392273 
	C610.439270,252.531784 608.167603,265.653290 609.985779,277.483734 
	C615.755737,315.027435 617.146667,353.021820 620.270325,390.838562 
	C620.571655,394.486786 621.209656,398.126953 621.232178,401.773682 
	C621.262146,406.624969 623.377747,409.136932 628.210693,409.719238 
	C641.592102,411.331543 654.915222,413.642975 668.338501,414.652161 
	C703.914185,417.326843 738.677612,423.420746 771.807922,437.158478 
	C775.494507,438.687164 779.225037,440.238953 782.633301,442.283325 
	C790.172180,446.805298 790.510681,454.785919 783.163086,459.660004 
	C773.884949,465.814850 763.424194,469.288605 752.498108,471.122192 
	C743.467285,472.637695 734.347229,473.612823 725.154846,473.266296 
	C701.648743,472.380219 678.183777,474.004181 654.698730,474.383942 
	C652.569458,474.418335 650.338013,474.224579 648.712097,475.998535 
	C648.262512,477.632385 649.347412,478.609161 650.141602,479.603455 
	C663.652832,496.519562 669.463013,516.670715 674.036560,537.241577 
	C681.528931,570.940369 682.893250,605.178955 682.177307,639.546204 
	C681.800659,657.627808 677.140442,675.085083 673.926758,692.745117 
	C668.293518,723.701599 662.680359,754.685791 660.545227,786.108032 
	C659.382324,803.221008 660.542847,820.405762 662.430481,837.483459 
	C662.685120,839.788025 663.333313,841.932007 665.687073,843.322571 
	C686.194702,855.438232 703.907959,871.170227 721.388916,887.108765 
	C753.915283,916.764771 788.281616,944.234192 821.826233,972.681580 
	C842.939026,990.586060 864.539673,1007.800171 886.815186,1024.720337 
	C770.979126,1025.000000 654.958191,1025.000000 538.258179,1024.741455 
	C520.938416,1004.527649 507.678192,982.404236 496.155151,958.427734 
	C495.719360,959.672852 495.452789,960.028381 495.536682,960.252991 
	C501.199890,975.416992 508.414276,989.770325 517.940674,1002.905640 
	C523.286072,1010.276062 528.646362,1017.635559 534.000000,1025.000000 
	C504.979095,1025.000000 475.958221,1025.000000 446.468658,1025.000000 
M216.760345,634.897095 
	C219.910080,633.852173 223.112503,632.942688 226.201202,631.740967 
	C250.354218,622.343506 274.729645,613.558350 298.591461,603.359619 
	C324.733856,592.186157 351.436737,582.326172 377.853333,571.788391 
	C380.194305,570.854553 383.245789,570.489014 384.374725,567.189453 
	C382.452179,566.503113 381.059479,567.175720 379.708313,567.698486 
	C354.588226,577.418396 329.504395,587.232727 304.356384,596.879639 
	C285.250031,604.209106 267.018860,613.573853 247.817383,620.721375 
	C236.953705,624.765198 226.170105,629.241516 215.263687,635.119507 
	C203.760498,638.217773 193.269211,643.647949 182.793396,649.134888 
	C178.676224,651.291382 174.785889,654.890808 170.244690,654.994141 
	C163.922821,655.137939 162.039993,660.050415 157.109772,663.423279 
	C160.887299,663.545837 162.536789,662.011353 164.329361,660.958740 
	C174.819153,654.799622 185.505722,649.016052 196.410919,643.622437 
	C202.818405,640.453369 209.952072,638.953613 216.760345,634.897095 
M492.518707,637.037964 
	C484.842773,633.409363 476.773743,630.418823 469.589386,625.992371 
	C460.402283,620.331909 451.365540,616.701965 440.675751,621.000122 
	C440.082520,621.238586 439.352234,621.113831 438.696075,621.221375 
	C416.644043,624.834839 394.964722,629.934448 373.933380,637.580383 
	C369.716675,639.113464 369.265137,640.752930 372.569855,643.347534 
	C387.264343,654.884155 398.841766,669.254761 410.205383,683.889893 
	C416.414276,691.886292 422.212341,700.383179 430.463806,706.515686 
	C443.824127,716.444885 457.407715,726.073120 470.819763,735.933472 
	C473.502777,737.905884 476.224213,738.999390 479.585236,738.757690 
	C486.216431,738.280945 492.680420,739.520447 498.321533,742.876587 
	C507.962097,748.612000 517.882507,752.765015 529.379395,751.862305 
	C530.510376,751.773560 531.688538,752.111450 532.828308,752.335083 
	C554.291870,756.546814 574.172302,752.559875 592.524170,740.769226 
	C620.143250,723.024536 636.435669,697.922913 642.076965,665.566284 
	C646.612610,639.551575 649.624573,613.609985 645.753418,587.168335 
	C642.462891,564.692993 637.215881,543.094421 624.180054,523.968445 
	C620.324097,518.311035 615.668579,513.761047 609.928711,510.250397 
	C603.953674,506.595978 597.635193,503.583527 591.236389,500.739929 
	C575.696655,493.834137 559.618835,490.426697 542.589539,493.233643 
	C540.417725,493.591614 537.940918,493.474670 536.249939,496.566101 
	C543.803894,499.900269 550.496216,504.139862 556.979004,508.747162 
	C569.046631,517.323669 575.163025,528.546631 574.185059,543.681702 
	C573.031189,561.539001 562.995911,576.293945 547.543213,581.887329 
	C541.982544,583.900085 536.153992,584.494385 530.382507,584.920105 
	C515.128235,586.045105 502.035309,581.862549 493.123779,568.409912 
	C488.391785,561.266602 484.817963,553.606079 482.520172,545.354370 
	C479.324188,533.877197 480.516907,523.021484 486.658875,512.647705 
	C488.821594,508.994812 492.097443,505.977264 493.372406,501.851685 
	C491.235687,499.626373 488.824524,500.211334 486.574524,500.523926 
	C473.651184,502.319427 460.711304,502.681763 447.757019,501.015198 
	C441.158447,500.166290 434.520966,499.440979 428.298279,496.782318 
	C420.904663,493.623322 418.908722,490.172943 420.025543,482.351257 
	C420.194519,481.167694 421.293793,479.833679 419.484192,478.633118 
	C416.181091,480.789764 415.282288,484.394257 414.203491,487.783020 
	C409.268341,503.286224 409.036224,519.026428 413.396118,534.574890 
	C418.734070,553.611450 426.773773,571.354248 440.728638,585.937500 
	C449.831207,595.449951 461.095276,602.271301 471.099762,610.671082 
	C488.450623,625.238770 508.080566,636.753357 527.909973,647.764099 
	C529.381653,648.581238 531.547607,648.831177 531.624634,651.965942 
	C517.640137,649.694885 505.721863,642.693604 492.518707,637.037964 
M462.242065,440.354034 
	C446.338165,438.567810 430.660614,435.430176 414.999908,432.252167 
	C389.424377,427.062134 365.044678,418.141174 341.062622,408.050018 
	C338.204742,406.847443 335.593719,404.976807 335.003174,401.831696 
	C334.159149,397.336517 331.152679,396.637604 327.412354,396.260559 
	C309.359680,394.440643 291.345795,392.147675 273.261169,390.772064 
	C265.001587,390.143738 256.948059,388.498077 248.462845,387.037354 
	C249.332672,388.998962 250.717758,389.368134 251.889236,389.805481 
	C270.937286,396.916870 288.577881,407.238403 307.800964,414.001221 
	C329.476715,421.626953 350.752899,430.688782 373.311371,435.285034 
	C405.605377,441.864990 438.207458,446.924408 470.531281,453.368958 
	C507.241486,460.688049 544.426270,463.407806 581.637451,465.604553 
	C610.574402,467.312866 639.608948,465.922607 668.603333,466.364990 
	C692.899719,466.735657 717.221680,465.310974 741.534363,464.774017 
	C754.298523,464.492126 766.079407,460.555847 777.555847,455.427277 
	C778.969055,454.795776 780.768555,454.282349 781.060913,451.292725 
	C744.262207,434.923889 705.744263,425.116028 665.195251,423.481659 
	C666.261719,423.847015 667.352966,424.116882 668.459534,424.287903 
	C669.774841,424.491211 671.103516,424.606903 672.425903,424.764954 
	C694.447998,427.397827 716.337891,430.679901 737.370605,438.115631 
	C739.017822,438.697937 741.409546,438.847656 741.156860,441.320862 
	C740.921204,443.627838 738.584656,443.699402 736.875244,444.043488 
	C726.389404,446.154358 715.697693,446.635345 705.086060,446.864868 
	C682.133606,447.361328 659.172852,446.592712 636.202087,446.837982 
	C599.230713,447.232758 562.220154,448.653717 525.278687,446.106720 
	C504.535034,444.676453 483.851959,442.366486 462.242065,440.354034 
M446.178711,424.226929 
	C449.969421,424.768250 453.753479,425.362366 457.551971,425.842224 
	C479.846527,428.658600 502.253754,430.292419 524.612366,432.408173 
	C550.088135,434.818878 575.459106,434.972198 600.935974,434.105103 
	C604.946411,433.968597 606.830261,432.437408 607.863831,428.552155 
	C609.093689,423.928711 607.883484,419.181976 609.129456,414.674866 
	C610.245544,410.637634 608.812134,409.069519 604.807434,409.094940 
	C586.312927,409.212463 567.795715,408.738708 549.330017,409.512054 
	C532.641235,410.211029 516.119202,410.852356 499.650482,407.071625 
	C493.042633,405.554626 485.581512,406.684540 479.506866,404.184509 
	C471.831329,401.025574 464.257843,401.007538 456.534790,401.162811 
	C433.273926,401.630585 410.801392,397.874756 388.975006,389.845978 
	C383.468323,387.820374 377.712341,386.472443 371.854614,384.749481 
	C370.198334,389.983154 372.945099,394.726440 371.838623,399.494812 
	C370.914490,403.477325 372.986511,405.480743 376.675812,406.885803 
	C398.884613,415.343994 421.898926,420.494232 446.178711,424.226929 
M499.144745,556.368164 
	C502.617249,562.109741 506.038513,568.325562 513.298767,569.507141 
	C522.666321,571.031738 532.217407,571.414795 541.451660,568.447876 
	C549.215393,565.953430 554.747620,560.652832 557.136719,552.889771 
	C561.408264,539.009827 560.346130,526.198181 547.971558,516.362549 
	C544.850098,513.881531 541.833984,511.257599 538.613342,508.913971 
	C531.681091,503.869476 523.861816,502.341797 515.418396,503.307190 
	C496.327972,505.489960 487.549561,517.148315 490.548187,536.109680 
	C491.698456,543.382996 495.091431,549.595276 499.144745,556.368164 
M324.072021,496.491547 
	C315.445282,496.235046 310.303284,492.553253 312.151642,486.724670 
	C314.202850,480.256439 315.789246,472.778473 323.552185,469.732758 
	C325.633545,468.916168 327.568665,468.338806 329.803406,468.653900 
	C336.868164,469.650085 336.888763,469.624817 338.596802,462.792511 
	C339.079865,460.860321 339.396118,458.886932 339.858490,456.949066 
	C340.949860,452.374786 340.022247,449.500214 334.467804,449.873688 
	C333.051971,449.968872 331.577850,449.194305 330.130219,448.820618 
	C323.391205,447.080902 316.521484,447.589783 310.724792,450.938019 
	C296.237152,459.306152 285.486938,478.228638 293.346344,497.114532 
	C296.695221,505.161804 302.116638,510.778564 310.980835,512.387756 
	C315.492462,513.206726 319.574585,511.497894 322.029236,508.107666 
	C324.254425,505.034332 327.652496,501.498199 324.072021,496.491547 
M352.130096,614.588806 
	C358.922729,612.449158 365.715393,610.309570 373.695160,607.796021 
	C364.450378,604.158875 279.902069,630.896362 269.863922,640.066528 
	C297.722107,631.411377 324.533295,623.081421 352.130096,614.588806 
M355.703705,568.143188 
	C359.785858,565.839478 364.918823,565.431213 368.236572,561.596741 
	C366.287781,558.056458 363.893280,559.405762 361.660767,560.484863 
	C338.874664,571.498535 315.715363,581.753601 293.521118,593.972168 
	C291.796478,594.921692 290.019440,595.776062 288.266754,596.674683 
	C288.472076,597.055847 288.677399,597.437073 288.882690,597.818237 
	C310.930115,588.040894 332.977570,578.263550 355.703705,568.143188 
M230.982864,643.461975 
	C216.667480,649.351196 201.760910,653.904541 188.496628,662.202271 
	C218.092560,650.305176 248.565262,640.870178 278.379639,629.566711 
	C262.539307,633.166443 247.189468,638.369507 230.982864,643.461975 
M306.900574,575.194214 
	C305.891541,575.979431 304.166260,576.048279 303.760376,578.249756 
	C318.341003,571.418274 332.408569,564.827148 346.476135,558.236023 
	C332.692383,562.071411 320.042969,568.349121 306.900574,575.194214 
M674.302124,869.228943 
	C672.483643,868.073792 671.125183,865.921692 667.807739,866.203064 
	C670.033691,873.732971 677.649536,874.097778 681.886230,878.340698 
	C686.310181,882.771118 691.578491,886.358459 696.477722,890.314270 
	C696.669922,890.076172 696.862122,889.838074 697.054382,889.599976 
	C689.648254,882.961853 682.242126,876.323792 674.302124,869.228943 
M605.281677,340.363098 
	C605.987183,345.084778 606.692688,349.806458 607.398132,354.528137 
	C607.750854,354.485291 608.103516,354.442474 608.456177,354.399628 
	C606.824158,339.000641 605.192139,323.601685 603.560120,308.202698 
	C602.526184,318.725708 603.435608,329.128357 605.281677,340.363098 
M197.070145,635.469360 
	C188.260498,638.890930 180.455963,643.942322 173.667633,650.658752 
	C181.564072,645.706726 189.460510,640.754639 197.070145,635.469360 
M540.958008,913.855042 
	C541.436340,916.708679 542.540833,919.135254 545.210693,920.502808 
	C544.301636,917.784668 545.320923,913.885071 540.958008,913.855042 
z"/>
<path fill="#000000" opacity="1.000000" stroke="none" 
	d="
M407.907593,404.861267 
	C400.544891,403.737854 394.321777,400.898621 388.155060,396.613922 
	C390.732330,395.234833 393.586121,395.291138 394.980286,396.514221 
	C397.942596,399.113007 402.814178,396.684875 404.972443,400.863525 
	C405.434296,401.757690 406.805511,400.876068 407.754089,400.676819 
	C409.389709,400.333252 410.935638,400.530060 411.182465,402.492371 
	C411.436676,404.513306 409.994049,404.995850 407.907593,404.861267 
z"/>
<path fill="#000000" opacity="1.000000" stroke="none" 
	d="
M562.580505,415.083618 
	C562.997070,414.555878 563.228516,414.250549 563.519897,414.174408 
	C565.572876,413.637878 567.614624,413.604736 568.592834,415.867126 
	C569.147644,417.150391 568.132629,418.125488 566.890808,418.403442 
	C564.437256,418.952606 562.574646,418.403748 562.580505,415.083618 
z"/>
<path fill="#000000" opacity="1.000000" stroke="none" 
	d="
M575.385132,414.263550 
	C576.864014,415.501251 577.306763,416.749664 575.889954,417.723572 
	C574.443848,418.717651 572.756226,418.510895 571.282959,417.558380 
	C570.581360,417.104767 570.054321,416.278717 570.414062,415.463959 
	C571.375549,413.286469 573.252686,413.740875 575.385132,414.263550 
z"/>
<path fill="#000000" opacity="1.000000" stroke="none" 
	d="
M426.997162,405.506317 
	C428.822845,402.391846 430.380768,403.928772 431.707581,405.521820 
	C432.552765,406.536591 432.455139,407.810669 431.034668,408.364807 
	C428.663757,409.289764 427.172272,408.529083 426.997162,405.506317 
z"/>
<path fill="#000000" opacity="1.000000" stroke="none" 
	d="
M560.477539,416.228699 
	C559.185730,419.017242 557.348389,418.502655 555.572571,417.344879 
	C554.808472,416.846710 554.840637,415.680115 555.522461,415.199341 
	C557.280640,413.959656 559.113037,413.524994 560.477539,416.228699 
z"/>
<path fill="#000000" opacity="1.000000" stroke="none" 
	d="
M424.383545,407.255554 
	C421.753448,408.348236 420.618622,407.274261 420.498260,405.007080 
	C420.439545,403.900543 421.231964,403.014496 422.361877,403.146912 
	C424.659393,403.416138 425.440552,404.797150 424.383545,407.255554 
z"/>
<path fill="#000000" opacity="1.000000" stroke="none" 
	d="
M604.320374,413.790985 
	C606.260132,415.728363 605.980286,417.201355 603.730713,418.040466 
	C602.579346,418.469910 601.289062,418.170807 600.984070,416.773865 
	C600.466553,414.403442 601.656311,413.418823 604.320374,413.790985 
z"/>
<path fill="#000000" opacity="1.000000" stroke="none" 
	d="
M579.773560,418.036621 
	C578.085083,415.901398 578.427246,414.427948 580.870850,413.983612 
	C582.218628,413.738556 583.754028,414.262909 583.861938,415.810455 
	C584.051575,418.530823 581.990051,418.344696 579.773560,418.036621 
z"/>
<path fill="#000000" opacity="1.000000" stroke="none" 
	d="
M536.723022,524.493042 
	C538.020264,528.215088 539.453979,531.620361 539.944336,535.156433 
	C540.823853,541.499268 533.179993,548.087952 526.820007,547.191467 
	C522.621460,546.599670 518.316956,547.003113 515.558289,542.643677 
	C513.110474,538.775330 512.363770,534.682739 512.831177,530.278076 
	C513.800781,521.141785 523.459106,516.472229 531.240234,521.312500 
	C532.925476,522.360840 534.700623,523.264771 536.723022,524.493042 
z"/>
</svg>